<svg xmlns="http://www.w3.org/2000/svg" width="31" height="25" fill="none" viewBox="0 0 31 25"><path fill="#fff" d="M30.625 2.96132C29.7722 4.2361 28.7259 5.32279 27.4862 6.22139C27.4984 6.46239 27.5045 6.73479 27.5045 7.03857C27.5045 8.72645 27.2597 10.4164 26.7699 12.1083C26.2802 13.8003 25.5321 15.4198 24.5256 16.9669C23.5192 18.514 22.3203 19.8845 20.9291 21.0786C19.5378 22.2727 17.8654 23.2248 15.9119 23.9349C13.9584 24.645 11.8648 25 9.63109 25C6.14498 25 2.93462 24.0542 0 22.1627C0.52086 22.2209 1.02041 22.2501 1.49865 22.2501C4.41101 22.2501 7.01222 21.3486 9.30227 19.5456C7.94436 19.5206 6.72825 19.1005 5.65394 18.2854C4.57963 17.4703 3.84032 16.4287 3.436 15.1607C3.83564 15.2372 4.23008 15.2755 4.6193 15.2755C5.17957 15.2755 5.73086 15.202 6.27318 15.0552C4.82404 14.7635 3.62186 14.0382 2.66663 12.8792C1.71143 11.7202 1.23383 10.3825 1.23383 8.86609V8.78794C2.12332 9.28288 3.0721 9.54614 4.08017 9.57774C3.22171 9.00261 2.54108 8.25262 2.03828 7.32777C1.53545 6.40292 1.28403 5.40207 1.28403 4.32522C1.28403 3.18951 1.56722 2.13194 2.13361 1.15252C3.70952 3.09597 5.61907 4.64924 7.86226 5.81232C10.1055 6.97542 12.512 7.62137 15.0819 7.75017C14.9723 7.29112 14.9174 6.81208 14.9172 6.31304C14.9172 4.57061 15.5308 3.08283 16.7579 1.8497C17.9851 0.616566 19.4656 0 21.1995 0C23.0148 0 24.5439 0.664258 25.7867 1.99277C27.2066 1.71012 28.5361 1.19888 29.7753 0.45905C29.2979 1.96888 28.378 3.13361 27.0156 3.95325C28.2678 3.80371 29.4709 3.47307 30.6249 2.96132H30.625Z"/></svg>